# xmcd CD database file
#
# Track frame offsets:
#	150
#	40078
#	60501
#	87090
#	105321
#	130524
#
# Disc length: 1912 seconds
#
# Revision: 0
# Processed by: cddbd v1.5.2PL0 Copyright (c) Steve Scherf et al.
# Submitted via: CDex 1.70beta2
#
DISCID=3a077606
DTITLE=Bobby Hutcherson - Linger Lane
DYEAR=1975
DGENRE=Jazz
TTITLE0=People Make the World Go Round
TTITLE1=Theme from "M*A*S*H"
TTITLE2=NTU
TTITLE3=Manzanita
TTITLE4=Mountain Caravan
TTITLE5=Silver Rondo
EXTD=YEAR: 1975
EXTT0=
EXTT1=
EXTT2=
EXTT3=
EXTT4=
EXTT5=
PLAYORDER=
